<svg width="32" height="32" viewBox="0 0 32 32" fill="none" xmlns="http://www.w3.org/2000/svg">
  <!-- Bold shield background with button colors -->
  <circle cx="16" cy="16" r="15" stroke="#D97706" stroke-width="2" fill="none" opacity="0.6"/>
  <path d="M16 4 C9 4 5 7 5 12 L5 22 C5 27 9 30 16 30 C23 30 27 27 27 22 L27 12 C27 7 23 4 16 4 Z" fill="#1E1B4B" stroke="#D97706" stroke-width="2"/>

  <!-- Bold V letterform with button gradient -->
  <path d="M10 12 L15.5 24 L16.5 24 L22 12 L20 12 L16 22 L12 12 Z" fill="#D97706"/>

  <!-- Bold crown element -->
  <path d="M11 10 L13.5 7 L16 8.5 L18.5 7 L21 10 L18.5 11.5 L16 10 L13.5 11.5 Z" fill="#CA8A04"/>

  <!-- Power accent -->
  <circle cx="16" cy="26" r="1.2" fill="#FCD34D"/>
</svg>
